<svg id="Layer_1" data-name="Layer 1" xmlns="http://www.w3.org/2000/svg" width="99.73" height="67.79" viewBox="0 0 99.73 67.79"><title>gestion des villes-01</title><path d="M80.14,18.96H73.48a2.279,2.279,0,0,1-2.28-2.28h0a2.279,2.279,0,0,1,2.28-2.28h6.66a2.279,2.279,0,0,1,2.28,2.28h0A2.292,2.292,0,0,1,80.14,18.96Z" fill="#e8aa14"/><path d="M97.45,32.48H74.42a2.279,2.279,0,0,1-2.28-2.28h0a2.279,2.279,0,0,1,2.28-2.28H97.45a2.279,2.279,0,0,1,2.28,2.28h0A2.279,2.279,0,0,1,97.45,32.48Z" fill="#e8aa14"/><path d="M33.19,29.54H10.16a2.279,2.279,0,0,1-2.28-2.28h0a2.279,2.279,0,0,1,2.28-2.28H33.19a2.279,2.279,0,0,1,2.28,2.28h0A2.279,2.279,0,0,1,33.19,29.54Z" fill="#e8aa14"/><path d="M3.7,29.54H2.28A2.279,2.279,0,0,1,0,27.26H0a2.279,2.279,0,0,1,2.28-2.28H3.7a2.279,2.279,0,0,1,2.28,2.28h0A2.279,2.279,0,0,1,3.7,29.54Z" fill="#e8aa14"/><path d="M68.05,56.4c-.18,2.1-1.39,3.91-2.6,5.67a33.327,33.327,0,0,1-10.56,4.7,9.385,9.385,0,0,1,1.28-1.83c1.56-1.7,3.82-2.91,4.51-5.1a5.636,5.636,0,0,0-.59-4.31,17.026,17.026,0,0,0-2.76-3.51,11.8,11.8,0,0,0-2.56-2.23,3.946,3.946,0,0,0-3.28-.45,4.211,4.211,0,0,0-2.28,2.5,27.926,27.926,0,0,0-.91,3.37,15.117,15.117,0,0,1-4.9,7.7c-1.49,1.25-3.36,2.4-4.15,4.1a19.121,19.121,0,0,1-2.34-.6,19.273,19.273,0,0,1,.65-2.62,21.076,21.076,0,0,1,3.45-6.44c2.43-3.1,5.82-5.62,7.09-9.35a3.177,3.177,0,0,0-.11-2.84,3,3,0,0,0-3.13-.79,21.363,21.363,0,0,1-3.3.86c-2.1.12-3.96-1.36-6.02-1.74s-4.15.34-6.18.91c-2.03.55-4.3.92-6.15-.08a7.49,7.49,0,0,1-3.17-4.39c-.15-.43-.29-.88-.43-1.33s-.26-.88-.43-1.31a13.931,13.931,0,0,0-.65-1.66,8.842,8.842,0,0,0-.46-.86c-1.2-2-1.54-2.73-4.81-4.56a2.3,2.3,0,0,0-.03.26c-.12-.08-.25-.14-.37-.22a32.318,32.318,0,0,1,.85-4.75,4.157,4.157,0,0,0,3.53.09c2.06-.99,2.82-3.54,4.59-4.98a6.816,6.816,0,0,1,6.52-.76,17.911,17.911,0,0,1,5.67,3.79,27.619,27.619,0,0,0,5.42,4.18,7.339,7.339,0,0,0,4.1.94,4.244,4.244,0,0,0,3.42-2.25c.45-.99.42-2.16.89-3.14.57-1.22,1.82-1.94,2.88-2.77a14.232,14.232,0,0,0,5.01-7.64,18.81,18.81,0,0,0-.66-10.34c-.17-.57-.37-1.12-.59-1.68a33.657,33.657,0,0,1,9.95,4.15c-1.79,1.17-2.8,3.5-3.28,5.67-.57,2.68-.71,5.56-2.17,7.86a13.986,13.986,0,0,1-4.72,4.08,21.867,21.867,0,0,0-5.07,3.68,6.267,6.267,0,0,0-1.7,5.76c.88,2.97,4.33,4.16,7.03,5.69,4.27,2.43,7.29,6.53,10.19,10.51C66.47,50.74,68.3,53.42,68.05,56.4Z" fill="#1be7ff"/><path d="M18.08,34.76a12.9,12.9,0,0,0-4.84-4.3,2.3,2.3,0,0,0,.03-.26C16.54,32.04,16.88,32.76,18.08,34.76Z" fill="none"/><path d="M55.75,12.96a14.243,14.243,0,0,1-1.74,4.02c-.18.29-.37.57-.57.83a13.467,13.467,0,0,1-2.7,2.79c-1.06.83-2.31,1.56-2.88,2.77-.48.99-.45,2.16-.89,3.14a4.244,4.244,0,0,1-3.42,2.25,7.339,7.339,0,0,1-4.1-.94,17.087,17.087,0,0,1-2.97-2.02c-.83-.69-1.63-1.43-2.45-2.16a17.745,17.745,0,0,0-5.67-3.79,6.816,6.816,0,0,0-6.52.76c-1.28,1.03-2.03,2.65-3.13,3.84a4.928,4.928,0,0,1-1.46,1.14,4.194,4.194,0,0,1-3.53-.09c.12-.46.25-.92.39-1.39A33.876,33.876,0,0,1,46.57,0a33.346,33.346,0,0,1,7.92.94q.33.825.6,1.68A18.717,18.717,0,0,1,55.75,12.96Z" fill="#6eeb83"/><path d="M60.68,59.83c-.69,2.19-2.96,3.41-4.51,5.1a9.835,9.835,0,0,0-1.28,1.83c-.43.11-.85.2-1.28.31a34.178,34.178,0,0,1-7.04.72,31.816,31.816,0,0,1-4.51-.32c-.94-.11-1.86-.28-2.79-.48.79-1.69,2.65-2.85,4.15-4.1a15.159,15.159,0,0,0,4.9-7.7,27.435,27.435,0,0,1,.91-3.37,4.211,4.211,0,0,1,2.28-2.5,3.941,3.941,0,0,1,3.28.45A11.8,11.8,0,0,1,57.35,52a17.3,17.3,0,0,1,2.76,3.51A5.7,5.7,0,0,1,60.68,59.83Z" fill="#7ac943"/><path d="M80.47,33.89A33.869,33.869,0,0,1,67.45,60.6c-.59.46-1.19.91-1.8,1.32h-.02a1.3,1.3,0,0,1-.18.15c.05-.06.07-.12.12-.18a11.982,11.982,0,0,0,2.48-5.5c.25-2.97-1.59-5.65-3.33-8.06-2.9-3.97-5.92-8.07-10.18-10.51-.76-.43-1.58-.83-2.38-1.26-2.06-1.06-4.02-2.28-4.65-4.42a5.012,5.012,0,0,1-.16-.77v-.05a5.623,5.623,0,0,1,.56-2.97,7.455,7.455,0,0,1,1.29-1.97,11.331,11.331,0,0,1,1.95-1.7c.98-.72,2.08-1.34,3.12-1.99a13.986,13.986,0,0,0,4.72-4.08c1.46-2.3,1.6-5.18,2.17-7.86a10.874,10.874,0,0,1,1.8-4.22,5.514,5.514,0,0,1,1.48-1.45,32.684,32.684,0,0,1,5.41,4.18A33.8,33.8,0,0,1,80.47,33.89Z" fill="#6eeb83"/><path d="M48.33,47.9a5.8,5.8,0,0,1-.34.83c-1.43,3.28-4.5,5.66-6.75,8.52a20.206,20.206,0,0,0-4.1,9.06,33.894,33.894,0,0,1-24.25-32.5c0-.6-.05-1.23-.08-1.86a9.612,9.612,0,0,1,.06-1.71c2.19-.71,4.45,2.22,5.42,4.44.14.29.32.57.46.86a15.869,15.869,0,0,1,.65,1.66c.11.29.2.6.29.89.05.14.09.28.14.42.14.45.28.89.43,1.33a7.49,7.49,0,0,0,3.17,4.39c1.71.92,3.79.68,5.7.18a3.285,3.285,0,0,0,.45-.11c2.03-.57,4.11-1.29,6.18-.91s3.93,1.86,6.02,1.74a23.9,23.9,0,0,0,3.3-.86,2.983,2.983,0,0,1,3.13.79A3.145,3.145,0,0,1,48.33,47.9Z" fill="#6eeb83"/><path d="M18.08,34.76a12.9,12.9,0,0,0-4.84-4.3,2.3,2.3,0,0,0,.03-.26C16.54,32.04,16.88,32.76,18.08,34.76Z" fill="none"/><path d="M43.57,16.49H17.92a2.292,2.292,0,0,1-2.28-2.28h0a2.292,2.292,0,0,1,2.28-2.28H43.57a2.292,2.292,0,0,1,2.28,2.28h0A2.285,2.285,0,0,1,43.57,16.49Z" fill="#e8aa14"/><path d="M48.88,16.49h0a2.279,2.279,0,0,1-2.28-2.28h0a2.279,2.279,0,0,1,2.28-2.28h0a2.279,2.279,0,0,1,2.28,2.28h0A2.285,2.285,0,0,1,48.88,16.49Z" fill="#e8aa14"/><path d="M51.69,37.04H49.6a2.279,2.279,0,0,1-2.28-2.28h0a2.279,2.279,0,0,1,2.28-2.28h2.09a2.279,2.279,0,0,1,2.28,2.28h0A2.279,2.279,0,0,1,51.69,37.04Z" fill="#e8aa14"/><path d="M68.94,56.15a8.671,8.671,0,0,1-1.06,3.63c-.12.25-.28.54-.43.82-.59.46-1.19.91-1.8,1.32h-.02c-.02-.01-.05-.01-.06-.03a11.982,11.982,0,0,0,2.48-5.5c.25-2.97-1.59-5.65-3.33-8.06-2.9-3.97-5.92-8.07-10.18-10.51-.76-.43-1.58-.83-2.38-1.26a4.4,4.4,0,0,1,.79.15c1.82.48,3.62.94,5.42,1.42a7.331,7.331,0,0,1,2.59,1.03,7.569,7.569,0,0,1,1.99,2.66q2.325,4.38,4.44,8.86A12.324,12.324,0,0,1,68.94,56.15Z" fill="#7ac943"/><path d="M48.33,47.9a5.8,5.8,0,0,1-.34.83,1.265,1.265,0,0,1-.03-.28,9.277,9.277,0,0,0,.14-1.28,1.911,1.911,0,0,0-1.73-1.51,7.874,7.874,0,0,0-2.45.26,25.231,25.231,0,0,1-8.34-.43c-2.14-.37-4.28-.71-6.44-1.08a3.285,3.285,0,0,0,.45-.11c2.03-.57,4.11-1.29,6.18-.91s3.93,1.86,6.02,1.74a23.9,23.9,0,0,0,3.3-.86,2.983,2.983,0,0,1,3.13.79A3.177,3.177,0,0,1,48.33,47.9Z" fill="#7ac943"/><path d="M65.8,49.14H5.14a2.279,2.279,0,0,1-2.28-2.28h0a2.279,2.279,0,0,1,2.28-2.28H65.8a2.279,2.279,0,0,1,2.28,2.28h0A2.279,2.279,0,0,1,65.8,49.14Z" fill="#e8aa14"/><path d="M43.27,37.04H26.65a2.279,2.279,0,0,1-2.28-2.28h0a2.279,2.279,0,0,1,2.28-2.28H43.27a2.279,2.279,0,0,1,2.28,2.28h0A2.279,2.279,0,0,1,43.27,37.04Z" fill="#e8aa14"/><path d="M64.44,5.08a5.514,5.514,0,0,0-1.48,1.45,10.874,10.874,0,0,0-1.8,4.22c-.57,2.68-.71,5.56-2.17,7.86a13.986,13.986,0,0,1-4.72,4.08c-1.05.64-2.12,1.28-3.12,2a.01.01,0,0,0-.01-.01c-.15.11-.29.22-.43.33s-.31.23-.45.35a8.44,8.44,0,0,0-1.06,1.01,7.793,7.793,0,0,0-1.29,1.97,5.52,5.52,0,0,0-.55,2.97,4.315,4.315,0,0,1,.51-1.76,6.15,6.15,0,0,1,1.05-1.34.435.435,0,0,0,.06-.07c.75-.67,1.51-1.34,2.25-2.01a24.091,24.091,0,0,1,3.73-2.9,16.522,16.522,0,0,0,3.33-2.02,8.863,8.863,0,0,0,2.23-4.48,15.045,15.045,0,0,1,1.65-4.79,6.563,6.563,0,0,1,7.69-2.69A34.869,34.869,0,0,0,64.44,5.08Z" fill="#7ac943"/><path d="M18.62,24.47a.149.149,0,0,0,.09-.02,4.928,4.928,0,0,1-1.46,1.14,4.194,4.194,0,0,1-3.53-.09c.12-.46.25-.92.39-1.39a3.744,3.744,0,0,0,1.05.39A12.936,12.936,0,0,0,18.62,24.47Z" fill="#7ac943"/><path d="M53.44,17.81a13.467,13.467,0,0,1-2.7,2.79c-1.06.83-2.31,1.56-2.88,2.77-.48.99-.45,2.16-.89,3.14a4.244,4.244,0,0,1-3.42,2.25,7.339,7.339,0,0,1-4.1-.94,17.087,17.087,0,0,1-2.97-2.02,4.864,4.864,0,0,0,3.11-.02c.76-.31,1.4-.94,2.22-1s1.57.52,2.39.59c1.26.09,2.3-.96,3.11-1.93,1.54-1.8,3.07-3.61,4.61-5.39.34-.4.89-.85,1.33-.52A.524.524,0,0,1,53.44,17.81Z" fill="#7ac943"/><path d="M55.75,12.96a14.243,14.243,0,0,1-1.74,4.02c.23-1.06.51-2.13.76-3.19.17-.72.34-1.43.51-2.14a8.72,8.72,0,0,0,.34-2.53,2.929,2.929,0,0,0-1.11-2.2.921.921,0,0,0-.88-.18.464.464,0,0,0-.18.76c.14.31-.28.65-.6.55a.892.892,0,0,1-.52-.8,8.642,8.642,0,0,1,.06-1,3.9,3.9,0,0,0-1.54-2.84A10.246,10.246,0,0,0,45.24.88a20.564,20.564,0,0,0-4.07.11,19.273,19.273,0,0,1-2.84.11,1.127,1.127,0,0,1-.18-.03A33.982,33.982,0,0,1,46.58.01,33.346,33.346,0,0,1,54.5.95q.33.825.6,1.68A18.766,18.766,0,0,1,55.75,12.96Z" fill="#7ac943"/><path d="M19.4,37.21c.11.29.2.6.29.89a17.414,17.414,0,0,0-3.21-4.55,6.585,6.585,0,0,0-2.22-1.36,6.384,6.384,0,0,0-1.46-.25,9.612,9.612,0,0,1,.06-1.71c2.19-.71,4.45,2.22,5.42,4.44.14.29.32.57.46.86A13.916,13.916,0,0,1,19.4,37.21Z" fill="#7ac943"/><path d="M60.24,58.92a3.237,3.237,0,0,1-1.22,2.45,10.33,10.33,0,0,1-1.74.92,7.5,7.5,0,0,0-3.05,3.04,5.508,5.508,0,0,0-.62,1.74,34.178,34.178,0,0,1-7.04.72c-.74,0-1.48-.02-2.22-.08-.48-.03-1.61.06-1.99-.25-.76-.62,1.22-2.51,1.58-2.98.58-.75,1.17-1.51,1.71-2.29a54.938,54.938,0,0,0,4.11-7.44,6.458,6.458,0,0,1,1.74-2.43,3.282,3.282,0,0,1,2.93-.97,5.489,5.489,0,0,1,2.98,1.86,8.9,8.9,0,0,1,1.73,2.96C59.47,57.14,60.26,57.8,60.24,58.92Z" fill="#6eeb83"/><path d="M69.2,12.39a12.764,12.764,0,0,1,3.5,2.45c1.8,2.01,2.22,6.82.63,9.07-.15.22-.14,1.18.16.75,1.38-1.96,1.36-4.75,1.06-7.05-.42-3.14-2.42-4.68-5.08-6.15-.28-.16-.51.8-.27.93Z" fill="#7ac943"/><path d="M74.99,19.67c.5,3.46-2.05,6.53-1.83,10.01.04.64.46-.12.44-.44-.23-3.61,2.33-6.57,1.8-10.22-.07-.5-.45.4-.41.65Z" fill="#7ac943"/><path d="M13.48,34.24c3.81,1.7,4.98,5.23,5.74,9.04.1.51.46-.39.41-.65-.79-3.99-2-7.61-5.97-9.38-.23-.1-.48.85-.18.99Z" fill="#7ac943"/><path d="M53.02,65.34c-.03-2.96,4.02-2.42,5.24-4.51a4.069,4.069,0,0,0,.15-3.79c-.16-.33-.47.57-.35.81,1.66,3.56-2.86,3.35-4.4,4.86a4.1,4.1,0,0,0-1.08,3.06c.01.64.44-.13.44-.43Z" fill="#7ac943"/><path d="M55.23,61.19a4.236,4.236,0,0,0,1.98-1.83.956.956,0,0,0,.12-.7c-.06-.16-.18-.25-.29-.05a3.583,3.583,0,0,1-1.76,1.61c-.27.12-.31,1.09-.05.97Z" fill="#7ac943"/></svg>