<svg id="Layer_1" data-name="Layer 1" xmlns="http://www.w3.org/2000/svg" width="39.91" height="42.42" viewBox="0 0 39.91 42.42"><title>gestion des categories</title><path d="M39.91,3.13V39.3a3.137,3.137,0,0,1-3.14,3.13H3.35A3.13,3.13,0,0,1,.21,39.3V3.13A3.13,3.13,0,0,1,3.35,0H36.77A3.13,3.13,0,0,1,39.91,3.13Z" fill="#86bbd8"/><path d="M39.91,3.13V8.84H.21V3.13A3.13,3.13,0,0,1,3.35,0H36.77A3.13,3.13,0,0,1,39.91,3.13Z" fill="#d9dcd6"/><circle cx="11.25" cy="4.42" r="1.18" fill="#7ac943"/><circle cx="7.78" cy="4.42" r="1.18" fill="#f6ae2d"/><circle cx="4.31" cy="4.42" r="1.18" fill="#ef233c"/><path d="M39.91,3.13V39.3a3.137,3.137,0,0,1-3.14,3.13H35.26V0h1.51A3.13,3.13,0,0,1,39.91,3.13Z" fill="#3a7ca5" opacity="0.2" style="isolation:isolate"/><path d="M7.63,17.89H4.61a1.329,1.329,0,0,1-1.33-1.33V13.55a1.329,1.329,0,0,1,1.33-1.33H7.62a1.329,1.329,0,0,1,1.33,1.33v3.01A1.321,1.321,0,0,1,7.63,17.89Z" fill="#ee7674"/><path d="M7.63,27.99H4.61a1.329,1.329,0,0,1-1.33-1.33V23.65a1.329,1.329,0,0,1,1.33-1.33H7.62a1.329,1.329,0,0,1,1.33,1.33v3.01A1.321,1.321,0,0,1,7.63,27.99Z" fill="#f9b5ac"/><path d="M7.63,38.09H4.61a1.329,1.329,0,0,1-1.33-1.33V33.75a1.329,1.329,0,0,1,1.33-1.33H7.62a1.329,1.329,0,0,1,1.33,1.33v3.01A1.321,1.321,0,0,1,7.63,38.09Z" fill="#d0d6b5"/><path d="M25.59,17.89H22.58a1.329,1.329,0,0,1-1.33-1.33V13.55a1.329,1.329,0,0,1,1.33-1.33h3.01a1.329,1.329,0,0,1,1.33,1.33v3.01A1.329,1.329,0,0,1,25.59,17.89Z" fill="#6d597a"/><path d="M25.59,27.99H22.58a1.329,1.329,0,0,1-1.33-1.33V23.65a1.329,1.329,0,0,1,1.33-1.33h3.01a1.329,1.329,0,0,1,1.33,1.33v3.01A1.329,1.329,0,0,1,25.59,27.99Z" fill="#edf2f4"/><path d="M25.59,38.09H22.58a1.329,1.329,0,0,1-1.33-1.33V33.75a1.329,1.329,0,0,1,1.33-1.33h3.01a1.329,1.329,0,0,1,1.33,1.33v3.01A1.329,1.329,0,0,1,25.59,38.09Z" fill="#ef233c"/><path d="M15.32,14.54H10.54a.4.4,0,0,1-.4-.4h0a.4.4,0,0,1,.4-.4h4.78a.4.4,0,0,1,.4.4h0A.4.4,0,0,1,15.32,14.54Z" fill="#edf2f4"/><path d="M13.66,16.15H10.41a.269.269,0,0,1-.27-.27h0a.269.269,0,0,1,.27-.27h3.25a.269.269,0,0,1,.27.27h0A.269.269,0,0,1,13.66,16.15Z" fill="#edf2f4"/><path d="M15.32,14.65H10.54a.4.4,0,0,1-.4-.4h0a.4.4,0,0,1,.4-.4h4.78a.4.4,0,0,1,.4.4h0A.4.4,0,0,1,15.32,14.65Z" fill="#edf2f4"/><path d="M13.66,16.26H10.41a.269.269,0,0,1-.27-.27h0a.269.269,0,0,1,.27-.27h3.25a.269.269,0,0,1,.27.27h0A.269.269,0,0,1,13.66,16.26Z" fill="#edf2f4"/><path d="M33.27,14.65H28.49a.4.4,0,0,1-.4-.4h0a.4.4,0,0,1,.4-.4h4.78a.4.4,0,0,1,.4.4h0A.4.4,0,0,1,33.27,14.65Z" fill="#edf2f4"/><path d="M31.6,16.26H28.35a.269.269,0,0,1-.27-.27h0a.269.269,0,0,1,.27-.27H31.6a.269.269,0,0,1,.27.27h0A.269.269,0,0,1,31.6,16.26Z" fill="#edf2f4"/><path d="M33.27,25.15H28.49a.4.4,0,0,1-.4-.4h0a.4.4,0,0,1,.4-.4h4.78a.4.4,0,0,1,.4.4h0A.4.4,0,0,1,33.27,25.15Z" fill="#edf2f4"/><path d="M31.6,26.76H28.35a.269.269,0,0,1-.27-.27h0a.269.269,0,0,1,.27-.27H31.6a.269.269,0,0,1,.27.27h0A.269.269,0,0,1,31.6,26.76Z" fill="#edf2f4"/><path d="M33.27,34.85H28.49a.4.4,0,0,1-.4-.4h0a.4.4,0,0,1,.4-.4h4.78a.4.4,0,0,1,.4.4h0A.408.408,0,0,1,33.27,34.85Z" fill="#edf2f4"/><path d="M31.6,36.46H28.35a.269.269,0,0,1-.27-.27h0a.269.269,0,0,1,.27-.27H31.6a.269.269,0,0,1,.27.27h0A.275.275,0,0,1,31.6,36.46Z" fill="#edf2f4"/><path d="M15.32,24.75H10.54a.4.4,0,0,1-.4-.4h0a.4.4,0,0,1,.4-.4h4.78a.4.4,0,0,1,.4.4h0A.4.4,0,0,1,15.32,24.75Z" fill="#edf2f4"/><path d="M13.66,26.36H10.41a.269.269,0,0,1-.27-.27h0a.269.269,0,0,1,.27-.27h3.25a.269.269,0,0,1,.27.27h0A.269.269,0,0,1,13.66,26.36Z" fill="#edf2f4"/><path d="M15.32,34.85H10.54a.4.4,0,0,1-.4-.4h0a.4.4,0,0,1,.4-.4h4.78a.4.4,0,0,1,.4.4h0A.408.408,0,0,1,15.32,34.85Z" fill="#edf2f4"/><path d="M13.66,36.46H10.41a.269.269,0,0,1-.27-.27h0a.269.269,0,0,1,.27-.27h3.25a.269.269,0,0,1,.27.27h0A.275.275,0,0,1,13.66,36.46Z" fill="#edf2f4"/></svg>