<svg id="Layer_1" data-name="Layer 1" xmlns="http://www.w3.org/2000/svg" xmlns:xlink="http://www.w3.org/1999/xlink" width="2121.466" height="476.02" viewBox="0 0 2121.466 476.02"><defs><linearGradient id="linear-gradient" x1="1061.934" y1="540.337" x2="1058.268" y2="-137.805" gradientTransform="matrix(1, 0, 0, -1, 0, 555.758)" gradientUnits="userSpaceOnUse"><stop offset="0" stop-color="#597bbb"/><stop offset="0.342" stop-color="#668fd3"/><stop offset="0.742" stop-color="#73a2e9"/><stop offset="1" stop-color="#77a9f1"/></linearGradient></defs><title>my second word(for ilyasse)-01</title><rect x="-0.004" width="2121.47" height="476.02" rx="50.89" fill="url(#linear-gradient)"/><path d="M753.5,0V476.02H12a12.035,12.035,0,0,1-12-12V12A12.035,12.035,0,0,1,12,0Z" fill="#524f4d"/><path d="M482.463,235.958H286.549c-25.277,0-45.769,21.93-45.769,48.982h0c0,27.052,20.492,48.982,45.769,48.982H482.463" fill="none" stroke="#fff" stroke-linecap="round" stroke-linejoin="round" stroke-width="21"/><path d="M180.812,80.81h26.6A38.02,38.02,0,0,1,243.857,108L281.88,235.958H488.447L508.6,137.2" fill="none" stroke="#fff" stroke-linecap="round" stroke-linejoin="round" stroke-width="21"/><rect x="275.264" y="351.037" width="32.841" height="32.841" rx="16.42" fill="#fff"/><rect x="445.387" y="351.037" width="32.841" height="32.841" rx="16.42" fill="#fff"/><line x1="251.613" y1="108.397" x2="503.205" y2="137.875" fill="none" stroke="#fff" stroke-miterlimit="10" stroke-width="7"/><line x1="267.411" y1="110.248" x2="301.813" y2="224.994" fill="none" stroke="#fff" stroke-miterlimit="10" stroke-width="2"/><line x1="284.612" y1="110.248" x2="319.014" y2="224.994" fill="none" stroke="#fff" stroke-miterlimit="10" stroke-width="2"/><line x1="302.803" y1="113.55" x2="336.215" y2="224.994" fill="none" stroke="#fff" stroke-miterlimit="10" stroke-width="2"/><line x1="320.893" y1="116.515" x2="353.416" y2="224.994" fill="none" stroke="#fff" stroke-miterlimit="10" stroke-width="2"/><line x1="342.294" y1="121.866" x2="370.617" y2="224.994" fill="none" stroke="#fff" stroke-miterlimit="10" stroke-width="2"/><line x1="359.495" y1="121.866" x2="387.818" y2="224.994" fill="none" stroke="#fff" stroke-miterlimit="10" stroke-width="2"/><line x1="376.696" y1="121.866" x2="405.019" y2="224.994" fill="none" stroke="#fff" stroke-miterlimit="10" stroke-width="2"/><line x1="394.806" y1="125.175" x2="422.22" y2="224.994" fill="none" stroke="#fff" stroke-miterlimit="10" stroke-width="2"/><line x1="412.372" y1="125.175" x2="439.786" y2="224.994" fill="none" stroke="#fff" stroke-miterlimit="10" stroke-width="2"/><line x1="430.63" y1="129.02" x2="456.987" y2="224.994" fill="none" stroke="#fff" stroke-miterlimit="10" stroke-width="2"/><line x1="448.104" y1="130.017" x2="474.188" y2="224.994" fill="none" stroke="#fff" stroke-miterlimit="10" stroke-width="2"/><line x1="465.732" y1="131.572" x2="491.389" y2="224.994" fill="none" stroke="#fff" stroke-miterlimit="10" stroke-width="2"/><line x1="481.974" y1="136.184" x2="503.205" y2="206.996" fill="none" stroke="#fff" stroke-miterlimit="10" stroke-width="2"/><path d="M850.053,160.47h-.544a3.266,3.266,0,0,1-2.992-3.264V68.533a3.309,3.309,0,0,1,3.264-3.264H867.6a47.6,47.6,0,0,1,.051,95.2h-17.6Zm17.544-6.664a40.937,40.937,0,0,0,0-81.873H853.181v81.873Z" fill="#fff" stroke="#fff" stroke-miterlimit="1" stroke-width="2"/><path d="M937.5,68.533a3.31,3.31,0,0,1,3.265-3.264h48.961a3.222,3.222,0,0,1,3.263,3.18v.084a3.255,3.255,0,0,1-3.107,3.4q-.078,0-.156,0H944.165v37.673h39.848a3.333,3.333,0,0,1,0,6.664H944.165v37.536h45.561a3.255,3.255,0,0,1,3.266,3.244q0,.078,0,.156a3.222,3.222,0,0,1-3.179,3.264H940.493a3.268,3.268,0,0,1-2.993-3.264Z" fill="#fff" stroke="#fff" stroke-miterlimit="1" stroke-width="2"/><path d="M1013.8,142.654a2.9,2.9,0,0,1,4.067-.531c.051.039.1.08.149.123,7.072,5.712,18.9,12.376,31.28,12.24,8.3,0,15.776-2.448,20.944-6.256,5.3-3.808,8.16-8.84,8.16-14.144,0-5.44-2.583-9.52-7.751-13.056-5.168-3.4-12.785-5.984-22.033-7.752h-.271c-8.841-1.632-16.593-4.08-22.441-8.024-5.848-3.809-9.792-9.521-9.792-16.593,0-7.208,3.944-13.464,9.928-17.816a39.045,39.045,0,0,1,22.985-6.936c12.511,0,21.9,6.12,29.375,11.016a3.034,3.034,0,0,1,.82,4.212l0,0a2.874,2.874,0,0,1-3.967.891c-.038-.024-.076-.049-.113-.075-7.481-4.9-15.641-10.064-26.112-10.064-7.752,0-14.689,2.312-19.449,5.713-4.759,3.535-7.48,8.159-7.48,13.055.137,4.76,2.312,8.3,7.072,11.561s11.832,5.575,20.4,7.208h.273c9.519,1.768,17.952,4.488,24.208,8.7,6.256,4.08,10.472,10.336,10.472,17.952s-4.352,14.416-10.745,19.04a41.839,41.839,0,0,1-24.48,7.481c-14.552-.137-27.2-7.481-35.088-13.737A3.153,3.153,0,0,1,1013.8,142.654Z" fill="#fff" stroke="#fff" stroke-miterlimit="1" stroke-width="2"/><path d="M1108.859,68.533a3.308,3.308,0,0,1,3.264-3.264h26.929a27.133,27.133,0,0,1,0,54.265l-23.529.272v37.4a3.333,3.333,0,0,1-6.664,0Zm30.193,44.609a20.6,20.6,0,0,0,0-41.209h-23.529v41.209Z" fill="#fff" stroke="#fff" stroke-miterlimit="1" stroke-width="2"/><path d="M1229.9,63.909c25.433,0,45.425,21.624,45.561,48.281-.136,26.656-20.128,48.28-45.561,48.28-25.7,0-45.832-21.624-45.968-48.28C1184.066,85.533,1204.194,63.909,1229.9,63.909Zm0,89.9c20.945,0,38.625-18.36,38.761-41.616-.136-23.529-17.816-41.481-38.761-41.481-21.624,0-39.3,17.952-39.3,41.481-.006,23.253,17.674,41.613,39.3,41.613Z" fill="#fff" stroke="#fff" stroke-miterlimit="1" stroke-width="2"/><path d="M1298.714,142.654a2.9,2.9,0,0,1,4.067-.531c.051.039.1.08.149.123,7.072,5.712,18.9,12.376,31.28,12.24,8.3,0,15.776-2.448,20.944-6.256,5.305-3.808,8.16-8.84,8.16-14.144,0-5.44-2.584-9.52-7.751-13.056-5.168-3.4-12.785-5.984-22.033-7.752h-.271c-8.841-1.632-16.593-4.08-22.441-8.024-5.848-3.809-9.792-9.521-9.792-16.593,0-7.208,3.944-13.464,9.928-17.816a39.042,39.042,0,0,1,22.984-6.936c12.512,0,21.9,6.12,29.376,11.016a3.034,3.034,0,0,1,.82,4.212l0,0a2.874,2.874,0,0,1-3.967.891c-.038-.024-.076-.049-.113-.075-7.481-4.9-15.641-10.064-26.113-10.064-7.751,0-14.688,2.312-19.448,5.713-4.76,3.535-7.48,8.159-7.48,13.055.136,4.76,2.312,8.3,7.072,11.561s11.832,5.575,20.4,7.208h.273c9.519,1.768,17.952,4.488,24.208,8.7,6.256,4.08,10.472,10.336,10.472,17.952s-4.352,14.416-10.745,19.04a41.839,41.839,0,0,1-24.48,7.481c-14.552-.137-27.2-7.481-35.088-13.737A3.153,3.153,0,0,1,1298.714,142.654Z" fill="#fff" stroke="#fff" stroke-miterlimit="1" stroke-width="2"/><path d="M1393.777,68.533a3.308,3.308,0,0,1,3.264-3.264H1446a3.222,3.222,0,0,1,3.264,3.179v.085a3.256,3.256,0,0,1-3.109,3.4c-.051,0-.1,0-.155,0h-45.561v37.673h39.848a3.333,3.333,0,0,1,0,6.664h-39.848v37.536H1446a3.256,3.256,0,0,1,3.267,3.245c0,.052,0,.1,0,.155a3.222,3.222,0,0,1-3.179,3.264h-49.318a3.266,3.266,0,0,1-2.992-3.264Z" fill="#fff" stroke="#fff" stroke-miterlimit="1" stroke-width="2"/><path d="M1524.47,138.979c0-6.936-3.536-11.288-7.752-14.416a30.407,30.407,0,0,0-11.017-4.76c-.407-.136-.544-.272-.68-.272H1481.9V157.2a3.333,3.333,0,0,1-6.664,0V68.533a3.368,3.368,0,0,1,2.992-3.264h27.2a27.2,27.2,0,0,1,11.424,51.817,12.5,12.5,0,0,0,1.36.68c6.256,3.536,12.784,10.472,12.784,21.216,0,5.576.544,8.976,1.224,11.016a4.97,4.97,0,0,0,1.36,2.312,3.569,3.569,0,0,1,3.672,2.176,3.7,3.7,0,0,1-2.176,4.352,14.384,14.384,0,0,1-1.632.136h-.272a7.584,7.584,0,0,1-6.12-4.352C1525.422,151.494,1524.47,147.006,1524.47,138.979ZM1505.43,71.93H1481.9V113h24.073a20.54,20.54,0,0,0-.544-41.073Z" fill="#fff" stroke="#fff" stroke-miterlimit="1" stroke-width="2"/><path d="M1634.221,158.567c-.137,0-.137-.137-.137-.273l-.136-.136-36.856-87.721a3.411,3.411,0,0,1,1.768-4.352,3.234,3.234,0,0,1,4.308,1.535c.015.032.03.065.044.1l34,81.057,34.136-81.057a3.046,3.046,0,0,1,3.933-1.757c.1.037.19.079.282.125a3.41,3.41,0,0,1,1.769,4.352l-36.855,87.042a3.177,3.177,0,0,1-1.9,2.72h-.135a3.988,3.988,0,0,1-1.224.272,3.383,3.383,0,0,1-1.225-.136.133.133,0,0,1-.135-.131v0A2.449,2.449,0,0,1,1634.221,158.567Z" fill="#fff" stroke="#fff" stroke-miterlimit="1" stroke-width="2"/><path d="M1741.253,63.909c25.433,0,45.425,21.624,45.56,48.281-.135,26.656-20.127,48.28-45.56,48.28-25.7,0-45.832-21.624-45.969-48.28C1695.421,85.533,1715.549,63.909,1741.253,63.909Zm0,89.9c20.944,0,38.625-18.36,38.761-41.616-.136-23.529-17.817-41.481-38.761-41.481-21.624,0-39.3,17.952-39.3,41.481,0,23.253,17.681,41.613,39.3,41.613Z" fill="#fff" stroke="#fff" stroke-miterlimit="1" stroke-width="2"/><path d="M1832.237,71.933h-28.7a3.333,3.333,0,0,1,0-6.664h63.921a3.333,3.333,0,0,1,0,6.664h-28.7v85.273a3.264,3.264,0,0,1-6.528,0Z" fill="#fff" stroke="#fff" stroke-miterlimit="1" stroke-width="2"/><path d="M1943.076,138.979c0-6.936-3.536-11.288-7.752-14.416a30.4,30.4,0,0,0-11.016-4.76c-.408-.136-.544-.272-.68-.272h-23.12V157.2a3.333,3.333,0,0,1-6.664,0V68.533a3.367,3.367,0,0,1,2.992-3.264h27.2a27.2,27.2,0,0,1,11.424,51.817,12.5,12.5,0,0,0,1.36.68c6.256,3.536,12.784,10.472,12.784,21.216,0,5.576.544,8.976,1.224,11.016a4.978,4.978,0,0,0,1.36,2.312,3.567,3.567,0,0,1,3.672,2.176,3.7,3.7,0,0,1-2.175,4.352,14.384,14.384,0,0,1-1.632.136h-.273a7.584,7.584,0,0,1-6.12-4.352C1944.028,151.494,1943.076,147.006,1943.076,138.979Zm-19.04-67.049h-23.528V113h24.072a20.54,20.54,0,0,0-.544-41.073Z" fill="#fff" stroke="#fff" stroke-miterlimit="1" stroke-width="2"/><path d="M1980.748,68.533a3.308,3.308,0,0,1,3.264-3.264h48.961a3.222,3.222,0,0,1,3.263,3.18v.084a3.255,3.255,0,0,1-3.107,3.4q-.078,0-.156,0h-45.561v37.673h39.848a3.333,3.333,0,0,1,0,6.664h-39.848v37.536h45.561a3.255,3.255,0,0,1,3.266,3.244q0,.078,0,.156a3.222,3.222,0,0,1-3.18,3.264h-49.317a3.266,3.266,0,0,1-2.991-3.264Z" fill="#fff" stroke="#fff" stroke-miterlimit="1" stroke-width="2"/><path d="M943.339,348.24H884.847l-11.8,30.81a13.509,13.509,0,0,1-12.517,8.3,14.23,14.23,0,0,1-4.573-.711,13.386,13.386,0,0,1-7.943-17.065l53.2-139.592a13.472,13.472,0,0,1,12.757-8.3,13.249,13.249,0,0,1,12.758,8.3l53.2,139.592a13.388,13.388,0,0,1-7.943,17.065,13.219,13.219,0,0,1-4.574.711,12.953,12.953,0,0,1-12.276-8.3Zm-9.869-26.07-19.5-50.955-19.5,50.955Z" fill="#fff" stroke="#fff" stroke-miterlimit="1" stroke-width="2"/><path d="M1039.383,374.31a13.119,13.119,0,0,1-26.237,0V236.379a12.743,12.743,0,0,1,5.3-10.9c6.017-4.029,14.2-2.844,18.293,2.844l77.749,105.939V236.613a13,13,0,0,1,13-12.8c7.221,0,13.24,5.925,13.24,12.8v137.7a13.047,13.047,0,0,1-23.109,8.3,6.315,6.315,0,0,1-1.2-1.422l-77.026-105.228Z" fill="#fff" stroke="#fff" stroke-miterlimit="1" stroke-width="2"/><path d="M1217.029,374.31a13.119,13.119,0,0,1-26.237,0V236.379a12.743,12.743,0,0,1,5.3-10.9c6.017-4.029,14.2-2.844,18.293,2.844l77.749,105.939V236.613a13,13,0,0,1,13-12.8c7.221,0,13.239,5.925,13.239,12.8v137.7a13.046,13.046,0,0,1-23.108,8.3,6.289,6.289,0,0,1-1.2-1.422l-77.027-105.228Z" fill="#fff" stroke="#fff" stroke-miterlimit="1" stroke-width="2"/><path d="M1496.977,242.064a86.1,86.1,0,0,1,0,119.921,79.39,79.39,0,0,1-57.53,25.36,81.83,81.83,0,0,1-58.973-25.36,87.351,87.351,0,0,1,0-119.921,80.914,80.914,0,0,1,58.973-25.359A78.494,78.494,0,0,1,1496.977,242.064Zm-3.13,59.961a60.884,60.884,0,0,0-16.368-41.475c-10.11-10.665-23.589-16.827-38.032-16.827a52.791,52.791,0,0,0-38.994,16.827,59.784,59.784,0,0,0-16.368,41.475c0,16.116,6.258,31.047,16.368,41.238a53,53,0,0,0,38.994,17.064c14.443,0,27.922-6.4,38.032-17.064A59.847,59.847,0,0,0,1493.847,302.025Z" fill="#fff" stroke="#fff" stroke-miterlimit="1" stroke-width="2"/><path d="M1588.932,374.31a13.119,13.119,0,1,1-26.238,0h0V236.379a12.743,12.743,0,0,1,5.3-10.9c6.018-4.029,14.2-2.844,18.293,2.844l77.749,105.939V236.613a13,13,0,0,1,13-12.8c7.221,0,13.24,5.925,13.24,12.8v137.7a13.047,13.047,0,0,1-23.109,8.3,6.315,6.315,0,0,1-1.2-1.422l-77.026-105.228Z" fill="#fff" stroke="#fff" stroke-miterlimit="1" stroke-width="2"/><path d="M1740.579,302.025c.241-46.926,40.2-85.083,88.34-85.32a90.955,90.955,0,0,1,55.6,18.486,13.869,13.869,0,0,1,2.408,18.96c-4.815,5.925-13.721,6.873-19.257,2.607-10.591-8.532-23.83-13.035-38.754-13.035a64.249,64.249,0,0,0-43.327,17.064c-10.832,10.9-17.571,25.122-17.571,41.238a57.2,57.2,0,0,0,17.571,41.238,64.249,64.249,0,0,0,43.327,17.064c14.924,0,27.922-4.5,38.754-13.035,5.536-4.029,14.442-3.081,19.257,2.607a13.838,13.838,0,0,1-2.408,18.959,90.947,90.947,0,0,1-55.6,18.487C1780.777,387.345,1740.82,349.188,1740.579,302.025Z" fill="#fff" stroke="#fff" stroke-miterlimit="1" stroke-width="2"/><path d="M1933.629,374.31V234.479a12.952,12.952,0,0,1,12.865-13.038c.125,0,.249,0,.374,0h78.711a13.255,13.255,0,0,1,13.239,13.035,13.461,13.461,0,0,1-13.239,13.272h-65.231v43.371h56.085a13.154,13.154,0,1,1,.229,26.307c-.077,0-.153,0-.229,0h-56.085v43.608h65.231a13.154,13.154,0,1,1,.229,26.307c-.077,0-.153,0-.229,0H1947.59c-.481,0-.481-.237-.481-.237l-.241.237a13.1,13.1,0,0,1-13.239-12.96Z" fill="#fff" stroke="#fff" stroke-miterlimit="1" stroke-width="2"/></svg>