<?xml version="1.0" encoding="utf-8"?>
<!-- Generator: Adobe Illustrator 23.0.3, SVG Export Plug-In . SVG Version: 6.00 Build 0)  -->
<svg version="1.1" id="Layer_1" xmlns="http://www.w3.org/2000/svg" xmlns:xlink="http://www.w3.org/1999/xlink" x="0px" y="0px"
	 viewBox="0 0 999.23 323.31" style="enable-background:new 0 0 999.23 323.31;" xml:space="preserve">
<style type="text/css">
	.st0{fill:#1E708A;}
	.st1{fill:#DCC259;}
	.st2{fill:#838BC5;}
</style>
<g>
	<g>
		<path class="st0" d="M191.29,205.3c-13.44,10.26-27.36,15.39-40.31,15.39h-0.73c-17.1,0-31.51-6.84-44.71-14.66
			c-4.89-2.69-10.02-3.67-14.9-3.67c-8.06,0-16.37,3.42-17.34,4.15c-4.89,2.69-10.5,2.2-14.17-0.73c-0.24-0.25-0.73-0.25-1.47-0.49
			c-0.24-0.24-0.24-0.24-0.49-0.24c-1.22-1.71-2.69-3.18-3.42-5.62c-3.66-7.33-0.24-15.39,6.6-18.81l0.73-0.49
			c-9.77-4.64-19.06-10.99-27.12-18.57c-14.9-16.61-24.43-39.09-24.43-63.76c0-24.43,9.53-46.66,24.43-63.03
			C49.6,17.93,71.1,7.67,95.04,7.67s45.68,10.26,60.58,27.12c15.63,16.37,24.92,38.6,24.92,63.03c0,24.67-9.28,47.15-24.92,63.76
			c-7.57,7.82-16.86,14.41-27.12,19.3l-5.62,2.2c10.26,5.62,19.54,8.79,27.36,8.79c7.08,0,13.92-1.71,23.94-9.28
			c6.11-4.89,14.9-3.66,19.79,2.44C198.86,191.13,197.89,199.93,191.29,205.3z M55.22,141.78c10.02,10.99,23.94,17.59,39.82,17.59
			c15.63,0,29.56-6.6,40.31-17.59c10.5-11.24,16.86-26.63,16.86-43.97c0-17.34-6.35-32.73-16.86-43.48
			c-10.75-11.24-24.67-17.83-40.31-17.83c-15.88,0-29.8,6.6-39.82,17.83c-10.5,10.75-16.86,26.14-16.86,43.48
			C38.36,115.16,44.72,130.55,55.22,141.78z"/>
		<path class="st0" d="M246.01,181.11c-27.85,0-50.81-22.96-50.81-50.81V71.92c0-6.84,5.86-12.95,12.95-12.95
			c7.33,0,12.95,6.11,12.95,12.95v58.39c0,13.92,10.99,24.92,24.92,24.92c14.17,0,25.41-10.99,25.65-24.92V71.92
			c0-6.84,5.37-12.95,12.7-12.95c6.84,0,13.19,6.11,13.19,12.95v58.39C297.55,158.15,274.1,181.11,246.01,181.11z"/>
		<path class="st0" d="M349.34,28.43c0,7.33-5.62,13.44-13.19,13.44c-7.33,0-13.19-6.11-13.19-13.44V23.3
			c0-7.33,5.86-13.19,13.19-13.19c7.57,0,13.19,5.86,13.19,13.19V28.43z M349.34,72.65v95.27c0,7.33-5.62,13.19-13.19,13.19
			c-7.33,0-13.19-5.86-13.19-13.19V72.65c0-7.82,5.86-13.44,13.19-13.44C343.72,59.21,349.34,64.83,349.34,72.65z"/>
		<path class="st0" d="M358.13,120.29c0-33.96,28.34-61.07,62.05-61.32c14.66,0,28.34,5.37,38.84,13.44
			c5.62,4.4,6.6,12.7,2.69,18.08c-4.89,5.86-12.7,6.84-18.32,2.44c-6.35-4.64-14.17-7.82-23.21-7.82
			c-19.79,0-36.16,16.37-36.16,35.18s16.37,34.93,36.16,34.93c8.79,0,16.86-3.18,23.21-7.82c5.38-4.15,13.44-3.18,18.32,2.69
			c3.91,5.37,2.93,13.19-2.69,18.08c-10.5,7.57-24.18,12.95-38.84,12.95C386.47,181.11,358.13,153.75,358.13,120.29z"/>
		<path class="st0" d="M481.49,167.68V23.55c0-7.33,5.86-13.44,13.44-13.44s13.68,6.11,13.68,13.44v84.53l50.08-50.08
			c5.13-5.13,13.92-5.13,19.05,0c5.38,5.37,5.38,13.92,0,19.06l-36.64,36.64l37.62,45.19c4.64,5.86,3.91,14.41-1.96,19.05
			c-2.44,2.2-5.62,3.18-8.55,3.18c-3.91,0-7.82-1.71-10.26-4.89l-35.91-43.48l-13.44,13.44v21.5c0,7.33-6.11,13.44-13.68,13.44
			S481.49,175.01,481.49,167.68z"/>
	</g>
</g>
<g>
	<g>
		<path class="st1" d="M390.96,207.84c4.28,0.09,8.39,0.58,12.35,1.46c3.95,0.89,7.51,2.91,10.68,6.07c2.7,2.61,4.58,5.68,5.65,9.21
			c1.07,3.54,1.6,7.17,1.6,10.88v45.91h-52.19c-7.54,0-13.3-2.07-17.3-6.21c-4-4.14-5.81-9.88-5.44-17.23
			c0.65-8.84,3.77-14.56,9.35-17.16c5.58-2.6,12.23-3.91,19.96-3.91l25.54-0.14c0.28-6.05-1.28-9.81-4.67-11.3
			c-3.4-1.49-7.7-2.23-12.91-2.23l-32.37-0.14v-15.21H390.96z M377.01,266.59h24.28v-15.21h-22.89c-0.19,0.09-0.37,0.14-0.56,0.14
			c-0.19,0-0.37,0-0.56,0c-2.61,0.09-5.02,0.58-7.26,1.46c-2.23,0.88-3.4,2.95-3.49,6.21c-0.19,3.63,0.81,5.77,3,6.42
			c2.19,0.65,4.67,1.02,7.47,1.12V266.59z"/>
		<path class="st1" d="M474.83,207.84c9.67,0.09,17.21,2,22.61,5.72c5.39,3.72,8.09,10.84,8.09,21.35v46.47h-19.4v-44.24
			c0-5.12-0.84-8.56-2.51-10.33c-1.67-1.77-5.12-2.65-10.33-2.65l-15.63-0.14v57.35h-19.4v-73.54H474.83z"/>
		<path class="st1" d="M558.56,207.84c9.67,0.09,17.21,2,22.61,5.72c5.39,3.72,8.09,10.84,8.09,21.35v46.47h-19.4v-44.24
			c0-5.12-0.84-8.56-2.51-10.33c-1.67-1.77-5.12-2.65-10.33-2.65l-15.63-0.14v57.35h-19.4v-73.54H558.56z"/>
		<path class="st1" d="M667.96,272.59c-3.54,3.54-7.79,6.14-12.77,7.81c-4.98,1.67-10.12,2.51-15.42,2.51s-10.42-0.84-15.35-2.51
			c-4.93-1.67-9.17-4.23-12.7-7.67c-3.63-3.54-6.35-7.77-8.16-12.7c-1.81-4.93-2.72-10-2.72-15.21c0-5.21,0.91-10.28,2.72-15.21
			c1.81-4.93,4.54-9.16,8.16-12.7c3.53-3.44,7.79-6.02,12.77-7.75c4.98-1.72,10.12-2.58,15.42-2.58c5.21,0,10.3,0.86,15.28,2.58
			c4.98,1.72,9.23,4.3,12.77,7.75c3.63,3.54,6.35,7.77,8.16,12.7c1.81,4.93,2.72,10,2.72,15.21c0,5.21-0.91,10.28-2.72,15.21
			c-1.81,4.93-4.54,9.16-8.16,12.7V272.59z M633.21,265.76c0.65,0.28,1.28,0.51,1.88,0.7c0.6,0.19,1.19,0.33,1.74,0.42
			c4.47,0.65,8.65-0.19,12.56-2.51c3.91-2.32,6.51-5.72,7.81-10.19c0.46-1.58,0.81-3.28,1.05-5.09c0.23-1.81,0.35-3.65,0.35-5.51
			c-0.19-4.09-1.17-7.98-2.93-11.65c-1.77-3.67-4.61-6.35-8.51-8.02c-0.84-0.37-1.72-0.65-2.65-0.84c-0.93-0.19-1.81-0.33-2.65-0.42
			c-4.28-0.37-8.28,0.61-12,2.93c-3.72,2.33-6.23,5.58-7.54,9.77c-0.47,1.58-0.82,3.23-1.05,4.95c-0.23,1.72-0.3,3.42-0.21,5.09
			c0.09,4.37,1.09,8.49,3,12.35c1.91,3.86,4.95,6.58,9.14,8.16V265.76z"/>
		<path class="st1" d="M727.26,207.84c9.67,0.09,17.21,2,22.61,5.72c5.39,3.72,8.09,10.84,8.09,21.35v46.47h-19.4v-44.24
			c0-5.12-0.84-8.56-2.51-10.33c-1.67-1.77-5.12-2.65-10.33-2.65l-15.63-0.14v57.35h-19.4v-73.54H727.26z"/>
		<path class="st1" d="M814.48,265.62h20.65v15.77h-26.37c-5.02,0-9.93-0.53-14.72-1.6c-4.79-1.07-9.09-3.42-12.91-7.05
			c-3.16-3.07-5.63-6.67-7.4-10.82c-1.77-4.14-2.88-8.39-3.35-12.77c0-0.65-0.02-1.33-0.07-2.02c-0.05-0.7-0.07-1.37-0.07-2.02
			c0-0.84,0.02-1.67,0.07-2.51c0.05-0.84,0.12-1.67,0.21-2.51c0.37-4.28,1.44-8.46,3.21-12.56c1.77-4.09,4.23-7.67,7.4-10.75
			c3.81-3.63,8.12-6,12.91-7.12c4.79-1.12,9.7-1.67,14.72-1.67l26.37-0.14v15.91h-20.65c-0.28,0.09-0.58,0.14-0.91,0.14
			c-0.33,0-0.63,0-0.91,0c-0.56,0-1.09,0-1.61,0c-0.51,0-1,0-1.46,0c-1.86,0-3.68,0.14-5.44,0.42c-1.77,0.28-3.44,0.89-5.02,1.81
			c-3.44,2.05-5.75,4.79-6.91,8.23c-1.17,3.44-1.74,7.02-1.74,10.74c0.09,3.63,0.74,7.1,1.95,10.4c1.21,3.3,3.44,5.93,6.7,7.88
			c1.58,0.93,3.25,1.53,5.02,1.81c1.77,0.28,3.58,0.47,5.44,0.56c0.56,0,1.14,0,1.74,0c0.6,0,1.19,0,1.74,0c0.28,0,0.53,0,0.77,0
			c0.23,0,0.44,0,0.63,0V265.62z"/>
		<path class="st1" d="M865.62,279.5c-4.88-1.26-9.19-3.88-12.91-7.88c-2.98-3.25-5.14-6.98-6.49-11.16
			c-1.35-4.19-2.16-8.46-2.44-12.84c0-0.46,0-0.93,0-1.4c0-0.46,0-0.93,0-1.4c0-0.65,0-1.28,0-1.88c0-0.6,0.05-1.23,0.14-1.88
			c0.28-4.19,1.09-8.3,2.44-12.35c1.35-4.05,3.46-7.65,6.35-10.81c3.72-4.09,8.02-6.77,12.91-8.02s9.93-1.88,15.14-1.88l28.33-0.14
			v15.35h-25.68c-5.4,0.09-9.72,0.91-12.98,2.44c-3.26,1.53-4.98,5.37-5.16,11.51l43.82-0.14v15.35h-43.82
			c0.18,6.42,1.81,10.33,4.88,11.72s7.44,2.09,13.12,2.09l25.82-0.14v15.35h-28.33C875.55,281.38,870.5,280.76,865.62,279.5z"/>
		<path class="st1" d="M961.28,266.03c0.18,0.09,0.37,0.14,0.56,0.14c0.19,0,0.37,0,0.56,0c2.32-0.09,4.46-0.6,6.42-1.53
			c1.95-0.93,2.93-2.84,2.93-5.72c0-2.7-0.93-4.51-2.79-5.44c-1.86-0.93-3.86-1.49-6-1.67c-0.28,0-0.56,0-0.84,0s-0.56,0-0.84,0
			l-16.75-0.14c-7.81,0.09-13.98-0.98-18.49-3.21c-4.51-2.23-6.82-7.91-6.91-17.02c-0.09-8.56,2.23-14.6,6.98-18.14
			c4.75-3.54,11.07-5.3,18.98-5.3l41.72-0.14v15.35h-34.33c-0.28,0.09-0.54,0.14-0.77,0.14c-0.23,0-0.49,0-0.77,0
			c-0.65,0-1.28,0-1.88,0c-0.61,0-1.28,0-2.02,0c-1.67,0.09-3.28,0.47-4.81,1.12c-1.54,0.65-2.54,1.86-3,3.63
			c-0.75,3.26-0.09,5.49,1.95,6.7c2.04,1.21,4.42,1.81,7.12,1.81l17.58-0.14c6.88,0.09,12.65,1.7,17.3,4.81
			c4.65,3.12,7.12,8.49,7.4,16.12c0,0.09,0,0.16,0,0.21c0,0.05,0,0.12,0,0.21c0.09,5.95-1.6,11.37-5.09,16.26
			c-3.49,4.88-8.49,7.33-15,7.33h-50.1v-15.35H961.28z"/>
	</g>
</g>
<g>
	<path class="st2" d="M546.06,290.55l10.06,21.58h-2.33l-3.39-7.1h-9.29l-3.36,7.1h-2.41l10.19-21.58H546.06z M545.79,295.13
		l-3.7,7.81h7.38L545.79,295.13z"/>
	<path class="st2" d="M574.62,299.48l-1.63,1.01c-1.41-1.87-3.33-2.8-5.76-2.8c-1.94,0-3.56,0.63-4.84,1.88
		c-1.29,1.25-1.93,2.77-1.93,4.56c0,1.16,0.29,2.26,0.89,3.28c0.59,1.03,1.4,1.82,2.43,2.39s2.18,0.85,3.46,0.85
		c2.34,0,4.26-0.93,5.74-2.8l1.63,1.07c-0.76,1.15-1.79,2.04-3.07,2.67c-1.29,0.63-2.75,0.95-4.39,0.95c-2.52,0-4.62-0.8-6.28-2.41
		c-1.66-1.6-2.49-3.55-2.49-5.85c0-1.54,0.39-2.98,1.17-4.31c0.78-1.32,1.85-2.36,3.21-3.1s2.88-1.12,4.56-1.12
		c1.06,0,2.08,0.16,3.06,0.48c0.98,0.32,1.82,0.74,2.5,1.26C573.56,298.02,574.14,298.68,574.62,299.48z"/>
	<path class="st2" d="M578.57,290.01h2.05v9.02c0.83-1.1,1.75-1.91,2.74-2.46c1-0.54,2.08-0.81,3.24-0.81c1.19,0,2.25,0.3,3.17,0.91
		c0.92,0.61,1.61,1.42,2.05,2.44c0.44,1.02,0.66,2.62,0.66,4.8v8.21h-2.05v-7.61c0-1.84-0.07-3.07-0.22-3.68
		c-0.25-1.06-0.72-1.85-1.39-2.38c-0.67-0.53-1.55-0.8-2.63-0.8c-1.24,0-2.35,0.41-3.34,1.23c-0.98,0.82-1.63,1.84-1.94,3.05
		c-0.2,0.78-0.29,2.23-0.29,4.34v5.85h-2.05V290.01z"/>
	<path class="st2" d="M610.32,306.83l1.73,0.91c-0.57,1.12-1.22,2.01-1.97,2.7c-0.74,0.68-1.58,1.21-2.51,1.56
		c-0.93,0.36-1.98,0.54-3.16,0.54c-2.6,0-4.64-0.85-6.11-2.56c-1.47-1.71-2.2-3.64-2.2-5.79c0-2.02,0.62-3.83,1.86-5.41
		c1.58-2.01,3.68-3.02,6.33-3.02c2.72,0,4.89,1.03,6.52,3.09c1.15,1.46,1.74,3.28,1.76,5.46h-14.36c0.04,1.85,0.63,3.37,1.78,4.56
		c1.15,1.19,2.56,1.78,4.24,1.78c0.81,0,1.6-0.14,2.37-0.42s1.42-0.66,1.96-1.13C609.11,308.63,609.7,307.87,610.32,306.83z
		 M610.32,302.53c-0.27-1.09-0.67-1.97-1.2-2.63c-0.52-0.66-1.22-1.18-2.08-1.58c-0.86-0.4-1.77-0.6-2.72-0.6
		c-1.57,0-2.91,0.5-4.04,1.51c-0.82,0.73-1.44,1.83-1.87,3.3H610.32z"/>
	<path class="st2" d="M618.2,290.24h2.05v5.93h3.26v1.77h-3.26v14.18h-2.05v-14.18h-2.8v-1.77h2.8V290.24z"/>
	<path class="st2" d="M640.02,306.83l1.73,0.91c-0.57,1.12-1.22,2.01-1.97,2.7c-0.74,0.68-1.58,1.21-2.51,1.56
		c-0.93,0.36-1.98,0.54-3.16,0.54c-2.6,0-4.64-0.85-6.11-2.56c-1.47-1.71-2.2-3.64-2.2-5.79c0-2.02,0.62-3.83,1.86-5.41
		c1.58-2.01,3.68-3.02,6.33-3.02c2.72,0,4.89,1.03,6.52,3.09c1.15,1.46,1.74,3.28,1.76,5.46h-14.36c0.04,1.85,0.63,3.37,1.78,4.56
		c1.15,1.19,2.56,1.78,4.24,1.78c0.81,0,1.6-0.14,2.37-0.42s1.42-0.66,1.96-1.13C638.82,308.63,639.4,307.87,640.02,306.83z
		 M640.02,302.53c-0.27-1.09-0.67-1.97-1.2-2.63c-0.52-0.66-1.22-1.18-2.08-1.58c-0.86-0.4-1.77-0.6-2.72-0.6
		c-1.57,0-2.91,0.5-4.04,1.51c-0.82,0.73-1.44,1.83-1.87,3.3H640.02z"/>
	<path class="st2" d="M644.81,296.17h11.72l-9.04,14.14h8.74v1.82h-12.28l9.03-14.15h-8.18V296.17z"/>
	<path class="st2" d="M665.85,303.12h8.07v1.79h-8.07V303.12z"/>
	<path class="st2" d="M684.17,290.55h2.35l7.15,16.67l7.27-16.67h2.35l-9.39,21.58h-0.47L684.17,290.55z"/>
	<path class="st2" d="M720.01,306.83l1.73,0.91c-0.57,1.12-1.22,2.01-1.97,2.7c-0.74,0.68-1.58,1.21-2.51,1.56
		c-0.93,0.36-1.98,0.54-3.16,0.54c-2.6,0-4.64-0.85-6.11-2.56c-1.47-1.71-2.2-3.64-2.2-5.79c0-2.02,0.62-3.83,1.86-5.41
		c1.58-2.01,3.68-3.02,6.33-3.02c2.72,0,4.89,1.03,6.52,3.09c1.15,1.46,1.74,3.28,1.76,5.46h-14.36c0.04,1.85,0.63,3.37,1.78,4.56
		c1.15,1.19,2.56,1.78,4.24,1.78c0.81,0,1.6-0.14,2.37-0.42s1.42-0.66,1.96-1.13C718.8,308.63,719.38,307.87,720.01,306.83z
		 M720.01,302.53c-0.27-1.09-0.67-1.97-1.2-2.63c-0.52-0.66-1.22-1.18-2.08-1.58c-0.86-0.4-1.77-0.6-2.72-0.6
		c-1.57,0-2.91,0.5-4.04,1.51c-0.82,0.73-1.44,1.83-1.87,3.3H720.01z"/>
	<path class="st2" d="M726.09,296.17h2.05v2.86c0.82-1.1,1.73-1.91,2.73-2.46c1-0.54,2.08-0.81,3.26-0.81c1.19,0,2.25,0.3,3.17,0.91
		c0.92,0.61,1.61,1.42,2.05,2.45c0.44,1.03,0.66,2.63,0.66,4.8v8.21h-2.05v-7.61c0-1.84-0.08-3.07-0.23-3.68
		c-0.24-1.06-0.69-1.85-1.37-2.38c-0.67-0.53-1.55-0.8-2.64-0.8c-1.24,0-2.35,0.41-3.34,1.23c-0.98,0.82-1.63,1.84-1.94,3.05
		c-0.2,0.79-0.29,2.24-0.29,4.34v5.85h-2.05V296.17z"/>
	<path class="st2" d="M760.34,290.01v22.12h-2.02v-2.74c-0.86,1.05-1.83,1.83-2.9,2.36c-1.07,0.53-2.24,0.79-3.51,0.79
		c-2.26,0-4.19-0.82-5.79-2.46s-2.4-3.63-2.4-5.98c0-2.3,0.81-4.26,2.42-5.9c1.61-1.63,3.55-2.45,5.82-2.45
		c1.31,0,2.5,0.28,3.56,0.84c1.06,0.56,1.99,1.39,2.79,2.51v-9.09H760.34z M752.13,297.74c-1.14,0-2.2,0.28-3.17,0.84
		s-1.74,1.35-2.31,2.37s-0.86,2.09-0.86,3.22c0,1.12,0.29,2.2,0.86,3.22c0.58,1.03,1.35,1.82,2.32,2.4
		c0.97,0.57,2.01,0.86,3.13,0.86c1.12,0,2.19-0.28,3.19-0.85s1.78-1.33,2.32-2.3c0.54-0.97,0.81-2.06,0.81-3.27
		c0-1.85-0.61-3.39-1.82-4.63C755.41,298.36,753.91,297.74,752.13,297.74z"/>
	<path class="st2" d="M778.43,306.83l1.73,0.91c-0.57,1.12-1.22,2.01-1.97,2.7c-0.74,0.68-1.58,1.21-2.51,1.56
		c-0.93,0.36-1.98,0.54-3.16,0.54c-2.6,0-4.64-0.85-6.11-2.56c-1.47-1.71-2.2-3.64-2.2-5.79c0-2.02,0.62-3.83,1.86-5.41
		c1.58-2.01,3.68-3.02,6.33-3.02c2.72,0,4.89,1.03,6.52,3.09c1.15,1.46,1.74,3.28,1.76,5.46h-14.36c0.04,1.85,0.63,3.37,1.78,4.56
		c1.15,1.19,2.56,1.78,4.24,1.78c0.81,0,1.6-0.14,2.37-0.42s1.42-0.66,1.96-1.13C777.22,308.63,777.8,307.87,778.43,306.83z
		 M778.43,302.53c-0.27-1.09-0.67-1.97-1.2-2.63c-0.52-0.66-1.22-1.18-2.08-1.58c-0.86-0.4-1.77-0.6-2.72-0.6
		c-1.57,0-2.91,0.5-4.04,1.51c-0.82,0.73-1.44,1.83-1.87,3.3H778.43z"/>
	<path class="st2" d="M783.21,296.17h11.72l-9.04,14.14h8.74v1.82h-12.28l9.03-14.15h-8.18V296.17z"/>
	<path class="st2" d="M819.03,306.83l1.73,0.91c-0.57,1.12-1.22,2.01-1.97,2.7c-0.74,0.68-1.58,1.21-2.51,1.56
		c-0.93,0.36-1.98,0.54-3.16,0.54c-2.6,0-4.64-0.85-6.11-2.56c-1.47-1.71-2.2-3.64-2.2-5.79c0-2.02,0.62-3.83,1.86-5.41
		c1.58-2.01,3.68-3.02,6.33-3.02c2.72,0,4.89,1.03,6.52,3.09c1.15,1.46,1.74,3.28,1.76,5.46h-14.36c0.04,1.85,0.63,3.37,1.78,4.56
		c1.15,1.19,2.56,1.78,4.24,1.78c0.81,0,1.6-0.14,2.37-0.42s1.42-0.66,1.96-1.13C817.82,308.63,818.4,307.87,819.03,306.83z
		 M819.03,302.53c-0.27-1.09-0.67-1.97-1.2-2.63c-0.52-0.66-1.22-1.18-2.08-1.58c-0.86-0.4-1.77-0.6-2.72-0.6
		c-1.57,0-2.91,0.5-4.04,1.51c-0.82,0.73-1.44,1.83-1.87,3.3H819.03z"/>
	<path class="st2" d="M825.11,296.17h2.05v2.86c0.82-1.1,1.73-1.91,2.73-2.46c1-0.54,2.08-0.81,3.26-0.81c1.19,0,2.25,0.3,3.17,0.91
		c0.92,0.61,1.61,1.42,2.05,2.45c0.44,1.03,0.66,2.63,0.66,4.8v8.21h-2.05v-7.61c0-1.84-0.08-3.07-0.23-3.68
		c-0.24-1.06-0.69-1.85-1.37-2.38c-0.67-0.53-1.55-0.8-2.64-0.8c-1.24,0-2.35,0.41-3.34,1.23c-0.98,0.82-1.63,1.84-1.94,3.05
		c-0.2,0.79-0.29,2.24-0.29,4.34v5.85h-2.05V296.17z"/>
	<path class="st2" d="M851.48,296.17h2.05v7.45c0,1.82,0.1,3.07,0.29,3.75c0.29,0.98,0.85,1.75,1.68,2.32
		c0.83,0.57,1.81,0.85,2.96,0.85c1.15,0,2.12-0.28,2.92-0.83c0.8-0.55,1.35-1.28,1.65-2.18c0.21-0.62,0.31-1.92,0.31-3.92v-7.45h2.1
		V304c0,2.2-0.26,3.86-0.77,4.97c-0.51,1.11-1.29,1.99-2.32,2.62c-1.03,0.63-2.33,0.95-3.88,0.95s-2.85-0.32-3.89-0.95
		c-1.04-0.63-1.82-1.51-2.33-2.64c-0.51-1.13-0.77-2.83-0.77-5.1V296.17z"/>
	<path class="st2" d="M870.01,296.17h2.05v2.86c0.82-1.1,1.73-1.91,2.73-2.46c1-0.54,2.08-0.81,3.26-0.81c1.19,0,2.25,0.3,3.17,0.91
		c0.92,0.61,1.61,1.42,2.05,2.45c0.44,1.03,0.66,2.63,0.66,4.8v8.21h-2.05v-7.61c0-1.84-0.08-3.07-0.23-3.68
		c-0.24-1.06-0.69-1.85-1.37-2.38c-0.67-0.53-1.55-0.8-2.64-0.8c-1.24,0-2.35,0.41-3.34,1.23c-0.98,0.82-1.63,1.84-1.94,3.05
		c-0.2,0.79-0.29,2.24-0.29,4.34v5.85h-2.05V296.17z"/>
	<path class="st2" d="M917.08,294.55l-1.7,1.3c-0.94-1.22-2.07-2.15-3.38-2.78s-2.76-0.95-4.33-0.95c-1.72,0-3.32,0.41-4.78,1.24
		s-2.6,1.94-3.41,3.33s-1.21,2.96-1.21,4.7c0,2.63,0.9,4.83,2.71,6.59c1.8,1.76,4.08,2.64,6.83,2.64c3.02,0,5.55-1.18,7.58-3.55
		l1.7,1.29c-1.08,1.37-2.42,2.43-4.03,3.18s-3.41,1.12-5.39,1.12c-3.77,0-6.75-1.26-8.93-3.77c-1.83-2.12-2.74-4.68-2.74-7.69
		c0-3.16,1.11-5.82,3.32-7.97c2.21-2.16,4.99-3.23,8.32-3.23c2.01,0,3.83,0.4,5.46,1.2S916.04,293.12,917.08,294.55z"/>
	<path class="st2" d="M920.76,290.01h2.05v22.12h-2.05V290.01z"/>
	<path class="st2" d="M927.79,289.6c0.47,0,0.87,0.17,1.2,0.5c0.33,0.33,0.5,0.73,0.5,1.2c0,0.46-0.17,0.86-0.5,1.19
		s-0.73,0.5-1.2,0.5c-0.46,0-0.85-0.17-1.18-0.5s-0.5-0.73-0.5-1.19c0-0.47,0.17-0.87,0.5-1.2
		C926.94,289.76,927.33,289.6,927.79,289.6z M926.77,296.17h2.05v15.96h-2.05V296.17z"/>
	<path class="st2" d="M948.98,296.17v21.8h-2.02v-8.58c-0.86,1.05-1.83,1.83-2.9,2.36c-1.07,0.53-2.24,0.79-3.51,0.79
		c-2.26,0-4.19-0.82-5.79-2.46s-2.4-3.63-2.4-5.98c0-2.3,0.81-4.26,2.42-5.9c1.61-1.63,3.55-2.45,5.82-2.45
		c1.31,0,2.5,0.28,3.56,0.84c1.06,0.56,1.99,1.39,2.79,2.51v-2.93H948.98z M940.77,297.74c-1.14,0-2.2,0.28-3.17,0.84
		s-1.74,1.35-2.31,2.37s-0.86,2.09-0.86,3.22c0,1.12,0.29,2.2,0.86,3.22c0.58,1.03,1.35,1.82,2.32,2.4
		c0.97,0.57,2.01,0.86,3.13,0.86c1.12,0,2.19-0.28,3.19-0.85s1.78-1.33,2.32-2.3c0.54-0.97,0.81-2.06,0.81-3.27
		c0-1.85-0.61-3.39-1.82-4.63C944.05,298.36,942.55,297.74,940.77,297.74z"/>
	<path class="st2" d="M953.32,296.17h2.05v7.45c0,1.82,0.1,3.07,0.29,3.75c0.29,0.98,0.85,1.75,1.68,2.32
		c0.83,0.57,1.81,0.85,2.96,0.85c1.15,0,2.12-0.28,2.92-0.83c0.8-0.55,1.35-1.28,1.65-2.18c0.21-0.62,0.31-1.92,0.31-3.92v-7.45h2.1
		V304c0,2.2-0.26,3.86-0.77,4.97c-0.51,1.11-1.29,1.99-2.32,2.62c-1.03,0.63-2.33,0.95-3.88,0.95s-2.85-0.32-3.89-0.95
		c-1.04-0.63-1.82-1.51-2.33-2.64c-0.51-1.13-0.77-2.83-0.77-5.1V296.17z"/>
	<path class="st2" d="M985.28,306.83l1.73,0.91c-0.57,1.12-1.22,2.01-1.97,2.7c-0.74,0.68-1.58,1.21-2.51,1.56
		c-0.93,0.36-1.98,0.54-3.16,0.54c-2.6,0-4.64-0.85-6.11-2.56c-1.47-1.71-2.2-3.64-2.2-5.79c0-2.02,0.62-3.83,1.86-5.41
		c1.58-2.01,3.68-3.02,6.33-3.02c2.72,0,4.89,1.03,6.52,3.09c1.15,1.46,1.74,3.28,1.76,5.46h-14.36c0.04,1.85,0.63,3.37,1.78,4.56
		c1.15,1.19,2.56,1.78,4.24,1.78c0.81,0,1.6-0.14,2.37-0.42s1.42-0.66,1.96-1.13C984.07,308.63,984.65,307.87,985.28,306.83z
		 M985.28,302.53c-0.27-1.09-0.67-1.97-1.2-2.63c-0.52-0.66-1.22-1.18-2.08-1.58c-0.86-0.4-1.77-0.6-2.72-0.6
		c-1.57,0-2.91,0.5-4.04,1.51c-0.82,0.73-1.44,1.83-1.87,3.3H985.28z"/>
</g>
</svg>
